name rise44.8762peak52.3436fall86.788.mot
datacolumns 19
datarows 27
range 1.34332700000000 1.38665800000000
endheader
time	ground_force1_vx	ground_force1_vy	ground_force1_vz	ground_force1_px	ground_force1_py	ground_force1_pz	ground_force2_vx	ground_force2_vy	ground_force2_vz	ground_force2_px	ground_force2_py	ground_force2_pz	ground_torque1_x	ground_torque1_y	ground_torque1_z	ground_torque2_x	ground_torque2_y	ground_torque2_z	
1.34332700000000	54.04081300000000	735.30470100000002	59.14005100000000	0.29129300000000	0.00000000000000	0.12046200000000	0.00000000000000	0.00000000000000	0.00000000000000	0.00000000000000	0.00000000000000	0.00000000000000	0.00000000000000	20.89004800000000	0.00000000000000	0.00000000000000	0.00000000000000	0.00000000000000	
1.34499400000000	53.46111600000000	739.15668600000004	59.42691600000000	0.29038600000000	0.00000000000000	0.12048500000000	0.00000000000000	0.00000000000000	0.00000000000000	0.00000000000000	0.00000000000000	0.00000000000000	0.00000000000000	21.02565700000000	0.00000000000000	0.00000000000000	0.00000000000000	0.00000000000000	
1.34666100000000	52.89117600000000	742.92292999999995	59.71475300000000	0.28952500000000	0.00000000000000	0.12050700000000	0.00000000000000	0.00000000000000	0.00000000000000	0.00000000000000	0.00000000000000	0.00000000000000	0.00000000000000	21.16267200000000	0.00000000000000	0.00000000000000	0.00000000000000	0.00000000000000	
1.34832400000000	52.33120200000000	746.59918300000004	60.00306000000000	0.28870700000000	0.00000000000000	0.12052800000000	0.00000000000000	0.00000000000000	0.00000000000000	0.00000000000000	0.00000000000000	0.00000000000000	0.00000000000000	21.30078600000000	0.00000000000000	0.00000000000000	0.00000000000000	0.00000000000000	
1.34999000000000	51.78129300000000	750.18119000000002	60.29126300000000	0.28793000000000	0.00000000000000	0.12054800000000	0.00000000000000	0.00000000000000	0.00000000000000	0.00000000000000	0.00000000000000	0.00000000000000	0.00000000000000	21.43965200000000	0.00000000000000	0.00000000000000	0.00000000000000	0.00000000000000	
1.35166000000000	51.24144600000000	753.66470800000002	60.57871700000000	0.28719100000000	0.00000000000000	0.12056600000000	0.00000000000000	0.00000000000000	0.00000000000000	0.00000000000000	0.00000000000000	0.00000000000000	0.00000000000000	21.57888700000000	0.00000000000000	0.00000000000000	0.00000000000000	0.00000000000000	
1.35332300000000	50.71155800000000	757.04553299999998	60.86471200000000	0.28648900000000	0.00000000000000	0.12058300000000	0.00000000000000	0.00000000000000	0.00000000000000	0.00000000000000	0.00000000000000	0.00000000000000	0.00000000000000	21.71807800000000	0.00000000000000	0.00000000000000	0.00000000000000	0.00000000000000	
1.35499600000000	50.19143500000000	760.31951700000002	61.14848400000000	0.28582100000000	0.00000000000000	0.12059900000000	0.00000000000000	0.00000000000000	0.00000000000000	0.00000000000000	0.00000000000000	0.00000000000000	0.00000000000000	21.85678100000000	0.00000000000000	0.00000000000000	0.00000000000000	0.00000000000000	
1.35666300000000	49.68079200000000	763.48259199999995	61.42921800000000	0.28518400000000	0.00000000000000	0.12061300000000	0.00000000000000	0.00000000000000	0.00000000000000	0.00000000000000	0.00000000000000	0.00000000000000	0.00000000000000	21.99452700000000	0.00000000000000	0.00000000000000	0.00000000000000	0.00000000000000	
1.35832500000000	49.17926200000000	766.53078500000004	61.70605500000000	0.28457500000000	0.00000000000000	0.12062700000000	0.00000000000000	0.00000000000000	0.00000000000000	0.00000000000000	0.00000000000000	0.00000000000000	0.00000000000000	22.13082800000000	0.00000000000000	0.00000000000000	0.00000000000000	0.00000000000000	
1.35999400000000	48.68640200000000	769.46024399999999	61.97810200000000	0.28399200000000	0.00000000000000	0.12064000000000	0.00000000000000	0.00000000000000	0.00000000000000	0.00000000000000	0.00000000000000	0.00000000000000	0.00000000000000	22.26517600000000	0.00000000000000	0.00000000000000	0.00000000000000	0.00000000000000	
1.36166400000000	48.20169800000000	772.26725199999998	62.24443700000000	0.28343100000000	0.00000000000000	0.12065200000000	0.00000000000000	0.00000000000000	0.00000000000000	0.00000000000000	0.00000000000000	0.00000000000000	0.00000000000000	22.39705100000000	0.00000000000000	0.00000000000000	0.00000000000000	0.00000000000000	
1.36332600000000	47.72457300000000	774.94824700000004	62.50411800000000	0.28288900000000	0.00000000000000	0.12066300000000	0.00000000000000	0.00000000000000	0.00000000000000	0.00000000000000	0.00000000000000	0.00000000000000	0.00000000000000	22.52592300000000	0.00000000000000	0.00000000000000	0.00000000000000	0.00000000000000	
1.36499100000000	47.25439500000000	777.49983999999995	62.75618800000000	0.28236300000000	0.00000000000000	0.12067300000000	0.00000000000000	0.00000000000000	0.00000000000000	0.00000000000000	0.00000000000000	0.00000000000000	0.00000000000000	22.65125600000000	0.00000000000000	0.00000000000000	0.00000000000000	0.00000000000000	
1.36666000000000	46.79047900000000	779.91882999999996	62.99968700000000	0.28185000000000	0.00000000000000	0.12068300000000	0.00000000000000	0.00000000000000	0.00000000000000	0.00000000000000	0.00000000000000	0.00000000000000	0.00000000000000	22.77251200000000	0.00000000000000	0.00000000000000	0.00000000000000	0.00000000000000	
1.36832500000000	46.33209900000000	782.20222100000001	63.23365600000000	0.28134600000000	0.00000000000000	0.12069200000000	0.00000000000000	0.00000000000000	0.00000000000000	0.00000000000000	0.00000000000000	0.00000000000000	0.00000000000000	22.88915700000000	0.00000000000000	0.00000000000000	0.00000000000000	0.00000000000000	
1.36999600000000	45.87849300000000	784.34723799999995	63.45714500000000	0.28084900000000	0.00000000000000	0.12070000000000	0.00000000000000	0.00000000000000	0.00000000000000	0.00000000000000	0.00000000000000	0.00000000000000	0.00000000000000	23.00066300000000	0.00000000000000	0.00000000000000	0.00000000000000	0.00000000000000	
1.37166000000000	45.42887200000000	786.35133599999995	63.66922100000000	0.28035500000000	0.00000000000000	0.12070800000000	0.00000000000000	0.00000000000000	0.00000000000000	0.00000000000000	0.00000000000000	0.00000000000000	0.00000000000000	23.10651200000000	0.00000000000000	0.00000000000000	0.00000000000000	0.00000000000000	
1.37333100000000	44.98242400000000	788.21221900000000	63.86897500000000	0.27986100000000	0.00000000000000	0.12071600000000	0.00000000000000	0.00000000000000	0.00000000000000	0.00000000000000	0.00000000000000	0.00000000000000	0.00000000000000	23.20620000000000	0.00000000000000	0.00000000000000	0.00000000000000	0.00000000000000	
1.37499500000000	44.53832400000000	789.92784400000005	64.05552700000000	0.27936300000000	0.00000000000000	0.12072300000000	0.00000000000000	0.00000000000000	0.00000000000000	0.00000000000000	0.00000000000000	0.00000000000000	0.00000000000000	23.29924100000000	0.00000000000000	0.00000000000000	0.00000000000000	0.00000000000000	
1.37666500000000	44.09573900000000	791.49644000000001	64.22803399999999	0.27885900000000	0.00000000000000	0.12073000000000	0.00000000000000	0.00000000000000	0.00000000000000	0.00000000000000	0.00000000000000	0.00000000000000	0.00000000000000	23.38517300000000	0.00000000000000	0.00000000000000	0.00000000000000	0.00000000000000	
1.37832400000000	43.65383600000000	792.91650800000002	64.38569699999999	0.27834600000000	0.00000000000000	0.12073700000000	0.00000000000000	0.00000000000000	0.00000000000000	0.00000000000000	0.00000000000000	0.00000000000000	0.00000000000000	23.46355600000000	0.00000000000000	0.00000000000000	0.00000000000000	0.00000000000000	
1.37999300000000	43.21178700000000	794.18683799999997	64.52776500000000	0.27782000000000	0.00000000000000	0.12074400000000	0.00000000000000	0.00000000000000	0.00000000000000	0.00000000000000	0.00000000000000	0.00000000000000	0.00000000000000	23.53398000000000	0.00000000000000	0.00000000000000	0.00000000000000	0.00000000000000	
1.38166000000000	42.76878000000000	795.30650900000001	64.65353800000000	0.27727900000000	0.00000000000000	0.12075000000000	0.00000000000000	0.00000000000000	0.00000000000000	0.00000000000000	0.00000000000000	0.00000000000000	0.00000000000000	23.59606600000000	0.00000000000000	0.00000000000000	0.00000000000000	0.00000000000000	
1.38332800000000	42.32401700000000	796.27489800000001	64.76237800000000	0.27672000000000	0.00000000000000	0.12075700000000	0.00000000000000	0.00000000000000	0.00000000000000	0.00000000000000	0.00000000000000	0.00000000000000	0.00000000000000	23.64946900000000	0.00000000000000	0.00000000000000	0.00000000000000	0.00000000000000	
1.38499700000000	41.87672800000000	797.09168299999999	64.85370700000000	0.27614000000000	0.00000000000000	0.12076300000000	0.00000000000000	0.00000000000000	0.00000000000000	0.00000000000000	0.00000000000000	0.00000000000000	0.00000000000000	23.69388100000000	0.00000000000000	0.00000000000000	0.00000000000000	0.00000000000000	
1.38665800000000	41.42617200000000	797.75684799999999	64.92701599999999	0.27553600000000	0.00000000000000	0.12077000000000	0.00000000000000	0.00000000000000	0.00000000000000	0.00000000000000	0.00000000000000	0.00000000000000	0.00000000000000	23.72903500000000	0.00000000000000	0.00000000000000	0.00000000000000	0.00000000000000	
